#!OML:ASF E:\Mandelcareful walks\Project 1\Capture day 1\Session 1\Subject1.ASF
:FULLY-SPECIFIED
:DEGREES
40
root -29.0305 16.5809 -1.50106 46.9825 88.4056 44.3691
lowerback -5.07805 -0.0343433 -8.40464
upperback 2.24708 0.613502 -0.564988
thorax 5.14035 0.0418464 4.18565
lowerneck -19.8394 0.934271 -1.6103
upperneck 39.5258 3.2071 1.20721
head 18.0341 1.68904 1.67063
rclavicle -4.32357e-015 9.54166e-015
rhumerus -28.0359 -6.91994 -84.214
rradius 27.6622
rwrist -5.58622
rhand -6.69337 -29.6159
rfingers 7.12502
rthumb 19.1657 -58.6915
lclavicle -4.32357e-015 9.54166e-015
lhumerus -24.6251 12.0814 80.9207
lradius 16.6967
lwrist -9.33204
lhand -20.4156 -10.3543
lfingers 7.12502
lthumb 5.93858 19.5425
rfemur -9.72784 0.66015 8.93947
rtibia 23.6899
rfoot -16.6177 -7.94573
rtoes 4.34128
lfemur -3.95621 -0.398182 -23.5756
ltibia 24.655
lfoot -29.5979 22.956
ltoes 14.5134
41
root -29.0148 16.5879 -1.46713 41.8094 88.383 38.9976
lowerback -5.45895 -0.0564599 -8.24496
upperback 2.20846 0.603149 -0.50935
thorax 5.31785 0.0339039 4.15731
lowerneck -20.0254 0.994733 -1.62265
upperneck 39.2473 3.29661 1.11159
head 17.9237 1.69981 1.63804
rclavicle -5.81445e-015 -9.93923e-015
rhumerus -27.8367 -7.68062 -83.8474
rradius 27.0418
rwrist -4.96463
rhand -6.75785 -29.6358
rfingers 7.12502
rthumb 19.1037 -58.7176
lclavicle -5.81445e-015 -9.93923e-015
lhumerus -24.6301 12.5045 80.7623
lradius 16.6563
lwrist -9.32017
lhand -19.728 -9.32619
lfingers 7.12502
lthumb 6.60236 20.5509
rfemur -9.74042 0.686135 9.23859
rtibia 23.3836
rfoot -16.5157 -8.32447
rtoes 3.73347
lfemur -4.13885 -0.278621 -23.3266
ltibia 24.7412
lfoot -29.5826 22.9028
ltoes 14.4995
42
root -29.0075 16.585 -1.42722 42.3447 88.3131 39.4198
lowerback -5.66464 -0.0614953 -8.14497
upperback 2.20763 0.612253 -0.567904
thorax 5.43397 0.038427 4.04255
lowerneck -20.2663 1.02171 -1.5425
upperneck 38.9779 3.29231 1.02309
head 17.8378 1.68698 1.57502
rclavicle -1.98785e-016 1.98785e-014
rhumerus -27.6773 -8.38168 -83.6247
rradius 26.5636
rwrist -4.4186
rhand -6.88217 -29.6257
rfingers 7.12502
rthumb 18.9841 -58.7192
lclavicle -1.98785e-016 1.98785e-014
lhumerus -24.6137 12.157 80.8887
lradius 16.7252
lwrist -8.32479
lhand -19.9493 -10.2438
lfingers 7.12502
lthumb 6.3888 19.6399
rfemur -9.74315 0.647836 9.3796
rtibia 23.1633
rfoot -16.255 -8.68175
rtoes 2.17039
lfemur -4.23701 -0.495675 -23.2517
ltibia 24.8027
lfoot -29.8696 22.9814
ltoes 14.7505
43
root -29.0046 16.5746 -1.38245 42.397 88.1331 39.4241
lowerback -5.63397 -0.046651 -8.21835
upperback 2.11885 0.627653 -0.53751
thorax 5.31978 0.0496894 4.11662
lowerneck -20.3578 1.04987 -1.52394
upperneck 38.739 3.35119 0.874106
head 17.7307 1.68581 1.50729
rclavicle -1.88845e-015 1.51076e-014
rhumerus -27.7554 -8.32477 -83.4203
rradius 26.2971
rwrist -4.31739
rhand -7.09328 -29.7465
rfingers 7.12502
rthumb 18.7811 -58.8598
lclavicle -1.88845e-015 1.51076e-014
lhumerus -24.8648 12.0958 81.0443
lradius 16.7793
lwrist -8.04771
lhand -20.5371 -12.1489
lfingers 7.12502
lthumb 5.8213 17.7512
rfemur -9.82021 0.735726 9.45029
rtibia 23.0542
rfoot -16.0325 -9.00676
rtoes 0.531027
lfemur -4.24279 -0.99664 -23.2813
ltibia 24.8068
lfoot -30.3418 23.357
ltoes 14.9105
44
root -28.9967 16.5715 -1.33572 42.9029 87.9153 39.9376
lowerback -5.6466 -0.0511177 -8.16668
upperback 2.07409 0.621143 -0.61415
thorax 5.2812 0.0527966 4.00635
lowerneck -20.3929 1.13174 -1.39497
upperneck 38.4751 3.45493 0.701568
head 17.5983 1.71638 1.41707
rclavicle 4.27387e-015 -3.18055e-014
rhumerus -27.8238 -8.1775 -83.4248
rradius 26.0984
rwrist -4.25045
rhand -7.27006 -29.9941
rfingers 7.12502
rthumb 18.6111 -59.1238
lclavicle 4.27387e-015 -3.18055e-014
lhumerus -25.081 12.2292 80.9647
lradius 16.7989
lwrist -8.101
lhand -20.5358 -11.8501
lfingers 7.12502
lthumb 5.82255 18.0499
rfemur -9.79023 0.912668 9.4294
rtibia 23.0115
rfoot -16.2059 -9.07899
rtoes 0.336242
lfemur -4.17455 -1.10414 -23.299
ltibia 24.7776
lfoot -30.4815 23.5237
ltoes 15.09
45
root -28.9847 16.5771 -1.28429 43.3563 87.8418 40.4158
lowerback -5.61474 -0.0695542 -8.15305
upperback 2.04354 0.588398 -0.582237
thorax 5.23455 0.0389161 4.02862
lowerneck -20.4621 1.1732 -1.39814
upperneck 38.2316 3.53291 0.577883
head 17.4839 1.72395 1.36934
rclavicle -1.14301e-015 -1.39149e-014
rhumerus -27.8266 -8.57444 -83.1669
rradius 25.8401
rwrist -3.74287
rhand -7.15498 -29.9115
rfingers 7.12502
rthumb 18.7218 -59.0305
lclavicle -1.14301e-015 -1.39149e-014
lhumerus -25.2445 12.5885 80.989
lradius 16.8416
lwrist -8.05876
lhand -20.0822 -10.7643
lfingers 7.12502
lthumb 6.26042 19.1232
rfemur -9.64536 1.00332 9.49611
rtibia 23.0007
rfoot -16.4785 -8.99701
rtoes 0.39779
lfemur -4.06692 -1.01008 -23.1445
ltibia 24.7243
lfoot -30.441 23.4114
ltoes 15.4968
46
root -28.9715 16.5842 -1.22815 44.2457 87.9135 41.262
lowerback -5.67229 -0.125575 -8.09704
upperback 2.03615 0.508915 -0.500156
thorax 5.26922 -0.00183423 4.07616
lowerneck -20.5702 1.2238 -1.43312
upperneck 37.9546 3.58537 0.563936
head 17.3579 1.7316 1.37163
rclavicle -1.49089e-015 2.38542e-014
rhumerus -27.7483 -8.82941 -82.9856
rradius 25.6487
rwrist -3.41399
rhand -7.10149 -29.7645
rfingers 7.12502
rthumb 18.7732 -58.8786
lclavicle -1.49089e-015 2.38542e-014
lhumerus -25.3905 12.6904 81.1746
lradius 16.9397
lwrist -7.74054
lhand -19.6351 -11.0299
lfingers 7.12502
lthumb 6.69205 18.8444
rfemur -9.59348 0.926879 9.70482
rtibia 23.0292
rfoot -16.4729 -9.02666
rtoes 0.0236224
lfemur -4.00547 -1.14351 -22.8965
ltibia 24.6393
lfoot -30.4966 23.3622
ltoes 15.5001
47
root -28.9598 16.588 -1.16945 48.1546 87.992 45.077
lowerback -5.76163 -0.23535 -8.09811
upperback 2.02196 0.365145 -0.419113
thorax 5.32367 -0.0767305 4.14824
lowerneck -20.696 1.31879 -1.39283
upperneck 37.6523 3.7115 0.454454
head 17.2278 1.76529 1.33213
rclavicle 2.28602e-015 3.57812e-015
rhumerus -27.674 -8.56596 -82.9705
rradius 25.5708
rwrist -3.53426
rhand -7.25023 -29.8639
rfingers 7.12502
rthumb 18.6301 -58.9917
lclavicle 2.28602e-015 3.57812e-015
lhumerus -25.528 12.7196 81.4609
lradius 17.0281
lwrist -7.50128
lhand -19.4014 -11.2867
lfingers 7.12502
lthumb 6.91771 18.5803
rfemur -9.62605 0.741131 9.88113
rtibia 23.0432
rfoot -16.3051 -9.0861
rtoes -0.350579
lfemur -4.03777 -1.31773 -22.7324
ltibia 24.584
lfoot -30.4308 23.4418
ltoes 14.9562
48
root -28.9468 16.5872 -1.10646 56.161 88.0967 52.9847
lowerback -5.86435 -0.348596 -8.10872
upperback 1.99262 0.222252 -0.402657
thorax 5.37026 -0.149128 4.15743
lowerneck -20.7369 1.35538 -1.21654
upperneck 37.377 3.75646 0.205243
head 17.102 1.76799 1.18998
rclavicle 1.83876e-015 -7.95139e-016
rhumerus -27.7842 -8.12449 -83.0629
rradius 25.7032
rwrist -4.01928
rhand -7.4652 -30.0038
rfingers 7.12502
rthumb 18.4234 -59.1514
lclavicle 1.83876e-015 -7.95139e-016
lhumerus -25.5454 12.803 81.7029
lradius 16.9207
lwrist -7.59659
lhand -19.8538 -12.435
lfingers 7.12502
lthumb 6.48096 17.4459
rfemur -9.62255 0.471223 10.0149
rtibia 23.0475
rfoot -16.2574 -9.03824
rtoes -0.578795
lfemur -4.12093 -1.4884 -22.6039
ltibia 24.5706
lfoot -30.28 23.5287
ltoes 14.7005
49
root -28.9313 16.5889 -1.03856 62.6222 88.3376 59.3595
lowerback -5.9862 -0.424287 -7.90406
upperback 1.97726 0.112874 -0.371834
thorax 5.43651 -0.199425 4.06393
lowerneck -20.7432 1.33804 -1.08605
upperneck 37.1245 3.69858 0.059576
head 16.9772 1.73872 1.08271
rclavicle -1.63997e-015 -1.39149e-014
rhumerus -27.9683 -7.66332 -83.2505
rradius 25.9777
rwrist -4.73118
rhand -7.69144 -29.9636
rfingers 7.12502
rthumb 18.2057 -59.1316
lclavicle -1.63997e-015 -1.39149e-014
lhumerus -25.459 12.7655 81.9504
lradius 16.7714
lwrist -7.44123
lhand -20.0889 -13.3133
lfingers 7.12502
lthumb 6.25395 16.5744
rfemur -9.59907 0.271212 10.385
rtibia 23.0883
rfoot -16.2545 -9.0526
rtoes -0.258841
lfemur -4.1896 -1.71978 -22.2548
ltibia 24.5641
lfoot -30.2322 23.6151
ltoes 14.7796
50
root -28.9152 16.5926 -0.969172 67.8003 88.5065 64.5303
lowerback -6.01695 -0.497616 -7.76831
upperback 1.97313 -0.00116469 -0.259763
thorax 5.46338 -0.254981 4.09358
lowerneck -20.7802 1.36433 -1.22969
upperneck 36.9097 3.7167 0.177157
head 16.8651 1.73972 1.1579
rclavicle -1.3418e-015 0
rhumerus -28.0615 -7.48207 -83.2643
rradius 26.0715
rwrist -4.96015
rhand -7.77962 -29.8748
rfingers 7.12502
rthumb 18.1209 -59.0507
lclavicle -1.3418e-015 0
lhumerus -25.5079 12.734 82.3534
lradius 16.6394
lwrist -7.80017
lhand -20.687 -13.8798
lfingers 7.12502
lthumb 5.6766 16.0241
rfemur -9.52257 0.123873 10.7628
rtibia 23.1686
rfoot -16.3139 -9.05272
rtoes 0.953854
lfemur -4.1339 -1.93234 -21.9166
ltibia 24.5282
lfoot -30.1299 23.8387
ltoes 13.8379
51
root -28.9 16.5956 -0.899117 79.1219 88.5689 75.8881
lowerback -5.96663 -0.584502 -7.75298
upperback 1.94861 -0.130777 -0.157752
thorax 5.42566 -0.318886 4.17851
lowerneck -20.8361 1.38581 -1.36069
upperneck 36.7819 3.72788 0.311947
head 16.8038 1.7434 1.23986
rclavicle 1.78906e-015 -1.59028e-015
rhumerus -28.0322 -7.32284 -83.2193
rradius 25.8147
rwrist -4.96918
rhand -7.90798 -30.2096
rfingers 7.12502
rthumb 17.9974 -59.3969
lclavicle 1.78906e-015 -1.59028e-015
lhumerus -25.7233 12.4125 82.9154
lradius 16.4563
lwrist -8.93926
lhand -21.9596 -14.2772
lfingers 7.12502
lthumb 4.44775 15.6561
rfemur -9.40006 -0.103158 11.0139
rtibia 23.2742
rfoot -16.5157 -9.05494
rtoes 2.17604
lfemur -4.00999 -2.07023 -21.6776
ltibia 24.4488
lfoot -29.9875 23.905
ltoes 12.6778
